# xmcd CD database file
#
# Track frame offsets:
#	150
#	25500
#	51532
#	70122
#	103130
#	123672
#	145240
#	168145
#	182872
#	209215
#
# Disc length: 3248 seconds
#
# Revision: 0
# Processed by: cddbd v1.5.1PL0 Copyright (c) Steve Scherf et al.
# Submitted via: CDex 1.51
#
DISCID=980cae0a
DTITLE=Great Jazz Trio - Standard Collection Volumn 1
DYEAR=1988
DGENRE=Jazz
TTITLE0=After You've Gone
TTITLE1=Summertime
TTITLE2=The Days Of Wine And Roses
TTITLE3=As Time Goes By
TTITLE4=You'd Be So Nice To Come Home To
TTITLE5=Summer Knows
TTITLE6=Georgeia On My Mind
TTITLE7=Prelude To A Kiss
TTITLE8=St. Louis Blues
TTITLE9=Danny Boy
EXTD=YEAR: 1988
EXTT0=
EXTT1=
EXTT2=
EXTT3=
EXTT4=
EXTT5=
EXTT6=
EXTT7=
EXTT8=
EXTT9=
PLAYORDER=
